<svg width="375" height="105" viewBox="0 0 375 105" fill="none" xmlns="http://www.w3.org/2000/svg">
<path d="M171.484 58.032L170.532 58.676C170.747 59.1053 171.022 59.5113 171.358 59.894C171.703 60.2673 172.1 60.5707 172.548 60.804C173.005 61.028 173.5 61.14 174.032 61.14C174.424 61.14 174.797 61.0747 175.152 60.944C175.516 60.8133 175.838 60.6267 176.118 60.384C176.407 60.1413 176.631 59.8473 176.79 59.502C176.958 59.1567 177.042 58.7693 177.042 58.34C177.042 57.892 176.963 57.5093 176.804 57.192C176.645 56.8653 176.44 56.59 176.188 56.366C175.945 56.1327 175.679 55.9413 175.39 55.792C175.101 55.6427 174.825 55.5213 174.564 55.428C173.995 55.232 173.542 55.036 173.206 54.84C172.879 54.6347 172.646 54.42 172.506 54.196C172.366 53.9627 172.296 53.7107 172.296 53.44C172.296 53.1227 172.417 52.838 172.66 52.586C172.903 52.3247 173.29 52.194 173.822 52.194C174.205 52.194 174.527 52.2687 174.788 52.418C175.059 52.5673 175.287 52.7587 175.474 52.992C175.661 53.2253 175.815 53.4633 175.936 53.706L176.958 53.118C176.799 52.7727 176.58 52.446 176.3 52.138C176.02 51.8207 175.679 51.564 175.278 51.368C174.886 51.1627 174.424 51.06 173.892 51.06C173.341 51.06 172.851 51.172 172.422 51.396C171.993 51.6107 171.657 51.9093 171.414 52.292C171.171 52.6747 171.05 53.1087 171.05 53.594C171.05 54.042 171.134 54.42 171.302 54.728C171.479 55.036 171.703 55.2973 171.974 55.512C172.245 55.7173 172.529 55.89 172.828 56.03C173.127 56.1607 173.397 56.268 173.64 56.352C174.013 56.4827 174.363 56.632 174.69 56.8C175.026 56.9587 175.297 57.1687 175.502 57.43C175.707 57.6913 175.81 58.0413 175.81 58.48C175.81 58.928 175.651 59.2967 175.334 59.586C175.017 59.8753 174.597 60.02 174.074 60.02C173.682 60.02 173.332 59.936 173.024 59.768C172.716 59.6 172.436 59.3667 172.184 59.068C171.941 58.7693 171.708 58.424 171.484 58.032ZM179.224 57.78C179.224 57.332 179.317 56.9353 179.504 56.59C179.7 56.2353 179.961 55.96 180.288 55.764C180.624 55.568 181.002 55.47 181.422 55.47C181.767 55.47 182.089 55.526 182.388 55.638C182.696 55.7407 182.962 55.8807 183.186 56.058C183.41 56.2353 183.569 56.4313 183.662 56.646V55.246C183.438 54.9847 183.116 54.784 182.696 54.644C182.285 54.4947 181.861 54.42 181.422 54.42C180.797 54.42 180.232 54.5647 179.728 54.854C179.224 55.1433 178.823 55.54 178.524 56.044C178.235 56.548 178.09 57.1267 178.09 57.78C178.09 58.424 178.235 59.0027 178.524 59.516C178.823 60.02 179.224 60.4167 179.728 60.706C180.232 60.9953 180.797 61.14 181.422 61.14C181.861 61.14 182.285 61.07 182.696 60.93C183.116 60.7807 183.438 60.5753 183.662 60.314V58.914C183.569 59.1193 183.41 59.3153 183.186 59.502C182.962 59.6793 182.696 59.824 182.388 59.936C182.089 60.0387 181.767 60.09 181.422 60.09C181.002 60.09 180.624 59.992 180.288 59.796C179.961 59.5907 179.7 59.3153 179.504 58.97C179.317 58.6247 179.224 58.228 179.224 57.78ZM186.525 54.56H185.405V61H186.525V54.56ZM188.471 55.792L189.087 54.868C188.919 54.6907 188.733 54.574 188.527 54.518C188.331 54.4527 188.117 54.42 187.883 54.42C187.585 54.42 187.291 54.5367 187.001 54.77C186.712 55.0033 186.474 55.3207 186.287 55.722C186.11 56.114 186.021 56.5667 186.021 57.08H186.525C186.525 56.772 186.553 56.4967 186.609 56.254C186.675 56.0113 186.787 55.82 186.945 55.68C187.104 55.54 187.323 55.47 187.603 55.47C187.79 55.47 187.944 55.498 188.065 55.554C188.187 55.6007 188.322 55.68 188.471 55.792ZM189.439 57.78C189.439 58.424 189.584 59.0027 189.873 59.516C190.172 60.02 190.573 60.4167 191.077 60.706C191.581 60.9953 192.146 61.14 192.771 61.14C193.406 61.14 193.971 60.9953 194.465 60.706C194.969 60.4167 195.366 60.02 195.655 59.516C195.954 59.0027 196.103 58.424 196.103 57.78C196.103 57.1267 195.954 56.548 195.655 56.044C195.366 55.54 194.969 55.1433 194.465 54.854C193.971 54.5647 193.406 54.42 192.771 54.42C192.146 54.42 191.581 54.5647 191.077 54.854C190.573 55.1433 190.172 55.54 189.873 56.044C189.584 56.548 189.439 57.1267 189.439 57.78ZM190.573 57.78C190.573 57.332 190.667 56.9353 190.853 56.59C191.049 56.2353 191.311 55.96 191.637 55.764C191.973 55.568 192.351 55.47 192.771 55.47C193.191 55.47 193.565 55.568 193.891 55.764C194.227 55.96 194.489 56.2353 194.675 56.59C194.871 56.9353 194.969 57.332 194.969 57.78C194.969 58.228 194.871 58.6247 194.675 58.97C194.489 59.3153 194.227 59.5907 193.891 59.796C193.565 59.992 193.191 60.09 192.771 60.09C192.351 60.09 191.973 59.992 191.637 59.796C191.311 59.5907 191.049 59.3153 190.853 58.97C190.667 58.6247 190.573 58.228 190.573 57.78ZM197.642 50.08V61H198.762V50.08H197.642ZM200.868 50.08V61H201.988V50.08H200.868Z" fill="white"/>
<path fill-rule="evenodd" clip-rule="evenodd" d="M187 26.9166V26.9166C182.335 26.9166 178.518 23.0992 178.518 18.4347V11.6485C178.518 6.98404 182.335 3.16663 187 3.16663V3.16663C191.664 3.16663 195.482 6.98404 195.482 11.6485V18.4347C195.482 23.0992 191.664 26.9166 187 26.9166Z" stroke="white" stroke-width="1.5" stroke-linecap="round" stroke-linejoin="round"/>
<path d="M182.25 31.6666L187 34.8333L191.75 31.6666" stroke="white" stroke-width="1.5" stroke-linecap="round" stroke-linejoin="round"/>
<path d="M187 9.95288V13.346" stroke="white" stroke-width="1.5" stroke-linecap="round" stroke-linejoin="round"/>
<path fill-rule="evenodd" clip-rule="evenodd" d="M192.983 92.0853C201.755 100.858 213.653 105.786 226.06 105.786H338C358.435 105.786 375 122.352 375 142.786C375 163.221 358.435 179.786 338 179.786H37C16.5655 179.786 0 163.221 0 142.786C0 122.352 16.5655 105.786 37 105.786H148.592C160.998 105.786 172.896 100.858 181.669 92.0853C184.793 88.9611 189.858 88.9611 192.983 92.0853Z" fill="#F8FAFE"/>
</svg>
